<?xml version="1.0"?><svg xmlns="http://www.w3.org/2000/svg" width="89" height="103"><rect x="0" y="0" width="100%" height="100%" fill="rgb(178, 190, 195)" /><rect x="-9.5" y="-9.5" width="19" height="19" stroke="#000" stroke-opacity="0.02" fill="#ddd" fill-opacity="0.072" stroke-width="1" /><rect x="80.408965343809" y="-9.5" width="19" height="19" stroke="#000" stroke-opacity="0.02" fill="#ddd" fill-opacity="0.072" stroke-width="1" /><rect x="-9.5" y="94.317930687617" width="19" height="19" stroke="#000" stroke-opacity="0.02" fill="#ddd" fill-opacity="0.072" stroke-width="1" /><rect x="80.408965343809" y="94.317930687617" width="19" height="19" stroke="#000" stroke-opacity="0.02" fill="#ddd" fill-opacity="0.072" stroke-width="1" /><rect x="35.454482671904" y="16.454482671904" width="19" height="19" stroke="#000" stroke-opacity="0.02" fill="#ddd" fill-opacity="0.054666666666667" stroke-width="1" /><rect x="-9.5" y="42.408965343809" width="19" height="19" stroke="#000" stroke-opacity="0.02" fill="#ddd" fill-opacity="0.054666666666667" stroke-width="1" /><rect x="80.408965343809" y="42.408965343809" width="19" height="19" stroke="#000" stroke-opacity="0.02" fill="#ddd" fill-opacity="0.054666666666667" stroke-width="1" /><rect x="35.454482671904" y="68.363448015713" width="19" height="19" stroke="#000" stroke-opacity="0.02" fill="#222" fill-opacity="0.080666666666667" stroke-width="1" /><polyline points="0, 0, 16.454482671904, 9.5, 0, 19, 0, 0" stroke="#000" stroke-opacity="0.02" fill="#ddd" fill-opacity="0.037333333333333" stroke-width="1" transform="translate(9.5, -9.5) rotate(0, 9.5, 8.2272413359522)" /><polyline points="0, 0, 16.454482671904, 9.5, 0, 19, 0, 0" stroke="#000" stroke-opacity="0.02" fill="#ddd" fill-opacity="0.037333333333333" stroke-width="1" transform="translate(9.5, 113.31793068762) rotate(0, 9.5, 8.2272413359522) scale(1, -1)" /><polyline points="0, 0, 16.454482671904, 9.5, 0, 19, 0, 0" stroke="#000" stroke-opacity="0.02" fill="#222" fill-opacity="0.11533333333333" stroke-width="1" transform="translate(80.408965343809, -9.5) rotate(0, 9.5, 8.2272413359522) scale(-1, 1)" /><polyline points="0, 0, 16.454482671904, 9.5, 0, 19, 0, 0" stroke="#000" stroke-opacity="0.02" fill="#222" fill-opacity="0.11533333333333" stroke-width="1" transform="translate(80.408965343809, 113.31793068762) rotate(0, 9.5, 8.2272413359522) scale(-1, -1)" /><polyline points="0, 0, 16.454482671904, 9.5, 0, 19, 0, 0" stroke="#000" stroke-opacity="0.02" fill="#222" fill-opacity="0.028666666666667" stroke-width="1" transform="translate(54.454482671904, 16.454482671904)" /><polyline points="0, 0, 16.454482671904, 9.5, 0, 19, 0, 0" stroke="#000" stroke-opacity="0.02" fill="#222" fill-opacity="0.028666666666667" stroke-width="1" transform="translate(35.454482671904, 16.454482671904) scale(-1, 1)" /><polyline points="0, 0, 16.454482671904, 9.5, 0, 19, 0, 0" stroke="#000" stroke-opacity="0.02" fill="#222" fill-opacity="0.15" stroke-width="1" transform="translate(54.454482671904, 87.363448015713) scale(1, -1)" /><polyline points="0, 0, 16.454482671904, 9.5, 0, 19, 0, 0" stroke="#000" stroke-opacity="0.02" fill="#222" fill-opacity="0.13266666666667" stroke-width="1" transform="translate(35.454482671904, 87.363448015713) scale(-1, -1)" /><polyline points="0, 0, 16.454482671904, 9.5, 0, 19, 0, 0" stroke="#000" stroke-opacity="0.02" fill="#222" fill-opacity="0.046" stroke-width="1" transform="translate(9.5, 42.408965343809)" /><polyline points="0, 0, 16.454482671904, 9.5, 0, 19, 0, 0" stroke="#000" stroke-opacity="0.02" fill="#ddd" fill-opacity="0.054666666666667" stroke-width="1" transform="translate(80.408965343809, 42.408965343809) scale(-1, 1)" /><rect x="0" y="0" width="19" height="19" stroke="#000" stroke-opacity="0.02" fill="#ddd" fill-opacity="0.02" stroke-width="1" transform="translate(9.5, 9.5) rotate(-30, 0, 0)" /><rect x="0" y="0" width="19" height="19" stroke="#000" stroke-opacity="0.02" fill="#222" fill-opacity="0.15" stroke-width="1" transform="scale(-1, 1) translate(-80.408965343809, 9.5) rotate(-30, 0, 0)" /><rect x="0" y="0" width="19" height="19" stroke="#000" stroke-opacity="0.02" fill="#ddd" fill-opacity="0.14133333333333" stroke-width="1" transform="translate(9.5, 23.408965343809) rotate(30, 0, 19)" /><rect x="0" y="0" width="19" height="19" stroke="#000" stroke-opacity="0.02" fill="#222" fill-opacity="0.11533333333333" stroke-width="1" transform="scale(-1, 1) translate(-80.408965343809, 23.408965343809) rotate(30, 0, 19)" /><rect x="0" y="0" width="19" height="19" stroke="#000" stroke-opacity="0.02" fill="#222" fill-opacity="0.15" stroke-width="1" transform="scale(1, -1) translate(9.5, -80.408965343809) rotate(30, 0, 19)" /><rect x="0" y="0" width="19" height="19" stroke="#000" stroke-opacity="0.02" fill="#ddd" fill-opacity="0.02" stroke-width="1" transform="scale(-1, -1) translate(-80.408965343809, -80.408965343809) rotate(30, 0, 19)" /><rect x="0" y="0" width="19" height="19" stroke="#000" stroke-opacity="0.02" fill="#222" fill-opacity="0.098" stroke-width="1" transform="scale(1, -1) translate(9.5, -94.317930687617) rotate(-30, 0, 0)" /><rect x="0" y="0" width="19" height="19" stroke="#000" stroke-opacity="0.02" fill="#222" fill-opacity="0.028666666666667" stroke-width="1" transform="scale(-1, -1) translate(-80.408965343809, -94.317930687617) rotate(-30, 0, 0)" /></svg>